<svg width="20" height="20" viewBox="0 0 20 20" fill="none" xmlns="http://www.w3.org/2000/svg">
<path d="M6.23438 15.2917L8.81771 17.2917C9.15104 17.625 9.90104 17.7917 10.401 17.7917H13.5677C14.5677 17.7917 15.651 17.0417 15.901 16.0417L17.901 9.95835C18.3177 8.79168 17.5677 7.79168 16.3177 7.79168H12.9844C12.4844 7.79168 12.0677 7.37501 12.151 6.79168L12.5677 4.12501C12.7344 3.37501 12.2344 2.54168 11.4844 2.29168C10.8177 2.04168 9.98437 2.37501 9.65104 2.87501L6.23438 7.95835" fill="black"/>
<path d="M6.23438 15.2917L8.81771 17.2917C9.15104 17.625 9.90104 17.7917 10.401 17.7917H13.5677C14.5677 17.7917 15.651 17.0417 15.901 16.0417L17.901 9.95835C18.3177 8.79168 17.5677 7.79168 16.3177 7.79168H12.9844C12.4844 7.79168 12.0677 7.37501 12.151 6.79168L12.5677 4.12501C12.7344 3.37501 12.2344 2.54168 11.4844 2.29168C10.8177 2.04168 9.98437 2.37501 9.65104 2.87501L6.23438 7.95835" stroke="black" stroke-width="1.5" stroke-miterlimit="10"/>
<path d="M1.98438 15.2917V7.12499C1.98438 5.95832 2.48438 5.54166 3.65104 5.54166H4.48437C5.65104 5.54166 6.15104 5.95832 6.15104 7.12499V15.2917C6.15104 16.4583 5.65104 16.875 4.48437 16.875H3.65104C2.48438 16.875 1.98438 16.4583 1.98438 15.2917Z" stroke="black" stroke-width="1.5" stroke-linecap="round" stroke-linejoin="round"/>
</svg>
