<svg width="18" height="18" viewBox="0 0 18 18" fill="none" xmlns="http://www.w3.org/2000/svg">
<path d="M8.16675 0.569675C8.45473 -0.189892 9.54458 -0.189892 9.83347 0.569675L11.6964 5.73005C11.7614 5.89815 11.8758 6.04259 12.0246 6.14429C12.1734 6.246 12.3495 6.3002 12.5298 6.29972H17.1079C17.9538 6.29972 18.3228 7.35267 17.6577 7.86835L14.3999 10.7995C14.2539 10.9117 14.1473 11.0672 14.0952 11.2438C14.0432 11.4204 14.0484 11.6089 14.1101 11.7823L15.2998 16.8248C15.5896 17.6347 14.6519 18.3304 13.9427 17.8318L9.51759 15.0239C9.36604 14.9174 9.18533 14.8603 9.00011 14.8603C8.81489 14.8603 8.63417 14.9174 8.48263 15.0239L4.05753 17.8318C3.34926 18.3304 2.4106 17.6338 2.70039 16.8248L3.89014 11.7823C3.95185 11.6089 3.95705 11.4204 3.90499 11.2438C3.85293 11.0672 3.74628 10.9117 3.60035 10.7995L0.342493 7.86835C-0.323477 7.35267 0.0473063 6.29972 0.891469 6.29972H5.46957C5.64982 6.30032 5.82601 6.24618 5.97482 6.14445C6.12363 6.04273 6.23805 5.89822 6.30293 5.73005L8.16675 0.569675Z" fill="#FFB439"/>
</svg>
