<svg width="20" height="20" viewBox="0 0 20 20" fill="none" xmlns="http://www.w3.org/2000/svg">
<path d="M6.23438 15.2916L8.81771 17.2916C9.15104 17.6249 9.90104 17.7916 10.401 17.7916H13.5677C14.5677 17.7916 15.651 17.0416 15.901 16.0416L17.901 9.95823C18.3177 8.79156 17.5677 7.79156 16.3177 7.79156H12.9844C12.4844 7.79156 12.0677 7.37489 12.151 6.79156L12.5677 4.12489C12.7344 3.37489 12.2344 2.54156 11.4844 2.29156C10.8177 2.04156 9.98437 2.37489 9.65104 2.87489L6.23438 7.95823" stroke="black" stroke-width="1.5" stroke-miterlimit="10"/>
<path d="M1.98438 15.2915V7.12484C1.98438 5.95817 2.48438 5.5415 3.65104 5.5415H4.48437C5.65104 5.5415 6.15104 5.95817 6.15104 7.12484V15.2915C6.15104 16.4582 5.65104 16.8748 4.48437 16.8748H3.65104C2.48438 16.8748 1.98438 16.4582 1.98438 15.2915Z" stroke="black" stroke-width="1.5" stroke-linecap="round" stroke-linejoin="round"/>
</svg>
