<?xml version="1.0" encoding="UTF-8"?>
<svg width="65px" height="30px" viewBox="0 0 65 30" version="1.1" xmlns="http://www.w3.org/2000/svg">
    <g id="Symbols" stroke="none" stroke-width="1" fill="none" fill-rule="evenodd">
        <g id="logo-blix" fill="#53b6c3">
            <path d="M17.0025862,25.170044 C17.862455,25.1723612 18.54463,24.4855805 18.5455237,23.6168224 C18.5463362,22.7590707 17.8417362,22.0434914 17.0035612,22.0507738 C16.165955,22.0580562 15.4888175,22.7474023 15.480855,23.6009335 C15.4726487,24.4758982 16.14353,25.1677269 17.0025862,25.170044 M25.9131112,19.7385267 C25.9186362,18.8841679 25.2444237,18.1788502 24.413155,18.1693334 C23.542805,18.1594856 22.8373925,18.8561968 22.8376362,19.7255342 C22.8377987,20.5675626 23.52038,21.2713079 24.3560362,21.2912518 C25.1894987,21.3111957 25.907505,20.5952026 25.9131112,19.7385267 M5.09743,9.16091267 C5.494255,10.0803994 5.876455,10.9657084 6.26799875,11.8729474 C7.507305,11.3223808 8.717605,10.784724 9.93448625,10.2441708 C9.9836425,10.3427315 10.01728,10.4028942 10.0447425,10.4659532 C10.8958362,12.4249208 11.74303,14.385709 12.5992425,16.3423594 C12.8150425,16.8356598 13.0361237,17.3292084 13.294905,17.7997512 C14.3717112,19.757312 16.0332737,20.6045539 18.2101237,20.4095012 C21.6768175,20.0988403 23.7938675,16.258198 22.2742487,13.0577454 C21.6065362,11.651496 20.94573,10.2418536 20.2810237,8.83428015 C20.23138,8.72926453 20.1749112,8.62755909 20.112105,8.50607529 C17.93558,9.45733976 15.7815612,10.3987564 13.6045487,11.3502692 C12.8708612,9.64999253 12.1491175,7.97727321 11.4155925,6.2773276 C9.306505,7.23992946 7.220005,8.19218698 5.09743,9.16091267 M5.2067925,26.2605018 C8.813155,24.6231187 12.4113925,22.989294 16.0092237,21.3557177 C15.5363487,21.1402246 15.0790737,20.92018 14.610505,20.7288513 C14.5247862,20.6938461 14.3860925,20.7600498 14.283555,20.8064752 C11.022505,22.2822385 7.7616175,23.7580018 4.50617375,25.2465921 C4.2724175,25.3535111 4.1365675,25.3320776 3.9841425,25.1353698 C3.80872375,24.9088704 3.6094175,24.7016528 3.40101125,24.463816 C6.77898,22.929959 10.1246925,21.4107495 13.4894987,19.882768 C13.2235675,19.5542321 12.9752675,19.2474607 12.7081987,18.917518 C12.6245925,18.9497923 12.5261987,18.9823149 12.4321925,19.0249335 C9.27173,20.4596505 6.11053625,21.8929607 2.95364875,23.3357877 C2.72533625,23.4401413 2.58769875,23.4423756 2.4637925,23.1979185 C2.35158625,22.9768808 2.202005,22.7753733 2.0438925,22.5257026 C5.41519875,20.9944937 8.76692375,19.4722223 12.1487925,17.9362964 C11.9778425,17.5620799 11.8150175,17.2056557 11.6431737,16.8293704 C8.248305,18.3703444 4.87586125,19.900974 1.47197375,21.4459202 C1.32028,21.102985 1.17654875,20.7780903 1.01323625,20.4089219 C4.410055,18.8662101 7.78916125,17.3316083 11.2104362,15.7777246 C11.0446862,15.4069839 10.8847862,15.0493183 10.7139175,14.6670747 C7.3436675,16.1962975 3.9997425,17.7136864 0.62388625,19.2455573 C0.5306925,18.8934364 0.4474925,18.5793826 0.3564925,18.2357854 C3.66864875,16.73172 6.9686175,15.2332819 10.2929612,13.7237547 C10.1325737,13.3503658 9.98079875,12.9970035 9.8126925,12.6054914 C6.58844875,14.0684277 3.3809425,15.5237506 0.16653,16.9821355 C-0.76102,11.2138895 2.17007375,3.92949601 9.3537925,1.08803304 C16.2688175,-1.64717297 24.0808425,1.37047459 27.5379487,8.0611864 C30.9750675,14.7134173 28.9643737,22.9184561 22.8213862,27.197367 C16.9151612,31.3113479 9.4971175,30.1512107 5.2067925,26.2605018"
                  id="Fill-1"></path>
            <path d="M14.8777119,14.0879909 C16.2073681,13.5221148 17.5097244,12.9678242 18.8767556,12.3860592 C19.2010244,13.2630928 19.6011806,14.0891495 19.8051181,14.9627901 C20.0532556,16.0261043 19.3579181,17.0616958 18.3365244,17.3904799 C17.3165119,17.7188503 16.1921744,17.258569 15.7433494,16.2764371 C15.4250931,15.5799741 15.1763056,14.8506576 14.8777119,14.0879909"
                  id="Fill-4"></path>
        </g>
        <g id="text" fill="#53b6c3">

            <path d="M42.3397325,17.9691417 C42.3397325,17.3515439 42.4317075,15.0428552 41.105545,14.7277256 C40.7424387,14.6414125 40.0042825,14.6167516 39.4476387,14.7030647 C39.08567,14.7591723 38.3679887,14.9215369 38.0923887,15.1590427 L38.104495,20.5820363 C38.1920825,20.6906932 39.448045,21.0788124 39.6412575,21.1243274 C40.5892825,21.3478477 41.6257887,20.951784 41.9162575,20.4711451 C42.3630512,19.731567 42.3397325,18.4647591 42.3397325,17.9691417 M44.4983012,17.8620572 C44.4983012,19.9165236 44.1911762,21.1859796 43.5740012,21.9008141 C42.8926387,22.6901278 42.25507,23.1826006 40.447745,23.2177713 C40.1031637,23.2244744 39.79287,23.172008 39.51727,23.0803159 C39.2414262,22.9887065 39.0003575,22.8750844 38.7935762,22.7392013 C38.5868762,22.6034837 38.4130012,22.4609802 38.2720325,22.3116081 C38.1309825,22.1623187 38.01967,22.0299941 37.9383387,21.9144686 L37.90072,21.9144686 L37.684595,22.9632181 L35.842495,22.9632181 C35.8549262,22.6714252 35.8659762,22.3100358 35.8754012,21.8788841 C35.8848263,21.4478153 35.8894575,21.0388419 35.8894575,20.6518812 L35.8894575,8.21957049 L38.1169262,8.21957049 L38.1169262,12.3229588 C38.1169262,12.6148344 38.1153012,12.8846972 38.1122137,13.1324646 C38.1089637,13.3803147 38.1042512,13.5719744 38.0980762,13.707692 L38.1169262,13.707692 C38.2609825,13.5992007 38.4176325,13.4938541 38.5868762,13.3920659 C38.7560387,13.2901949 38.94072,13.1985855 39.1413262,13.117155 C39.34177,13.0357244 39.5586262,12.9749825 39.7897825,12.9236747 C40.6577762,12.7311046 42.6142762,12.6643216 43.5256575,13.9389084 C44.33637,15.0728124 44.4983012,15.9601903 44.4983012,17.8620572"
                  id="Fill-6"></path>
            <path d="M47.1317356,22.5293686 C46.2281544,21.7076979 46.1152169,19.8869306 46.1152169,19.3248611 C46.1152169,14.9723814 46.1384544,12.5967442 46.1384544,8.24418171 L48.3658419,8.24418171 C48.3658419,8.24418171 48.3538981,15.3439497 48.3658419,17.714456 C48.3701481,18.5654219 48.2449419,20.4567789 48.8580544,21.0811626 C49.4389106,21.6727755 50.7135606,21.5762836 50.7135606,21.5762836 L50.6974731,22.987912 L49.0516731,22.987912 C49.0516731,22.987912 47.6774106,23.0256481 47.1317356,22.5293686"
                  id="Fill-8"></path>
            <path d="M52.2583425,9.35344132 L53.6149738,9.35344132 C53.8865925,9.35344132 54.10678,9.57770637 54.10678,9.85435509 L54.10678,11.4693944 C54.10678,11.7460432 53.8865925,11.9702255 53.6149738,11.9702255 L52.2583425,11.9702255 C51.9867237,11.9702255 51.7665362,11.7460432 51.7665362,11.4693944 L51.7665362,9.85435509 C51.7665362,9.57770637 51.9867237,9.35344132 52.2583425,9.35344132"
                  id="Fill-10"></path>
            <polygon id="Fill-12"
                     points="51.8229563 22.9632512 54.0503438 22.9632512 54.0503438 13.0968304 51.8229563 13.0968304"></polygon>
            <polygon id="Fill-14"
                     points="59.9896294 19.5318553 57.6400419 22.9631932 55.0836731 22.9631932 58.6832919 17.9332841 55.2998794 13.0967725 57.9220606 13.0967725 60.0460169 16.3550705 62.2076731 13.0967725 64.8391981 13.0967725 61.3617794 17.9231053 64.9332044 22.9631932 62.3298731 22.9631932"></polygon>
        </g>
    </g>
</svg>
