<svg width="16" height="17" viewBox="0 0 16 17" fill="none" xmlns="http://www.w3.org/2000/svg">
<path d="M11.7422 10.5421C12.5329 9.46554 13 8.13644 13 6.69824C13 3.10839 10.0899 0.198242 6.5 0.198242C2.91015 0.198242 0 3.10839 0 6.69824C0 10.2881 2.91015 13.1982 6.5 13.1982C7.93858 13.1982 9.26801 12.7309 10.3448 11.9398L10.3439 11.9404C10.3734 11.9804 10.4062 12.0187 10.4424 12.0549L14.2929 15.9054C14.6834 16.2959 15.3166 16.2959 15.7071 15.9054C16.0976 15.5148 16.0976 14.8817 15.7071 14.4911L11.8566 10.6407C11.8204 10.6045 11.7822 10.5716 11.7422 10.5421ZM12 6.69824C12 9.73581 9.53757 12.1982 6.5 12.1982C3.46243 12.1982 1 9.73581 1 6.69824C1 3.66068 3.46243 1.19824 6.5 1.19824C9.53757 1.19824 12 3.66068 12 6.69824Z" fill="white"/>
</svg>
