<?xml version="1.0" encoding="utf-8"?>
<!-- Generator: Adobe Illustrator 27.8.1, SVG Export Plug-In . SVG Version: 6.00 Build 0)  -->
<svg version="1.1" id="Warstwa_1" xmlns="http://www.w3.org/2000/svg" xmlns:xlink="http://www.w3.org/1999/xlink" x="0px" y="0px"
	 viewBox="0 0 116 20" style="enable-background:new 0 0 116 20;" xml:space="preserve">
<style type="text/css">
	.st0{fill:#FFFFFF;}
</style>
<path class="st0" d="M0,0v20h116V0H0z M19.6,8.7L16,12c-0.2,0.1-0.3,0.3-0.3,0.5c-0.1,0.2-0.1,0.4,0,0.6l1.3,5.6
	c0.3,0.9-0.7,1.7-1.5,1.1l-4.9-3.1c-0.2-0.1-0.4-0.2-0.6-0.2c-0.2,0-0.4,0.1-0.6,0.2l-4.9,3.1c-0.8,0.6-1.8-0.2-1.5-1.1l1.3-5.6
	c0.1-0.2,0.1-0.4,0-0.6C4.3,12.3,4.2,12.1,4,12L0.4,8.7C-0.4,8.2,0.1,7,1,7h5.1c0.2,0,0.4-0.1,0.6-0.2S6.9,6.6,7,6.4l2.1-5.7
	c0.3-0.8,1.5-0.8,1.9,0L13,6.4c0.1,0.2,0.2,0.3,0.4,0.5C13.5,6.9,13.7,7,13.9,7H19C19.9,7,20.4,8.2,19.6,8.7z M43.6,8.7L40,12
	c-0.2,0.1-0.3,0.3-0.3,0.5c-0.1,0.2-0.1,0.4,0,0.6l1.3,5.6c0.3,0.9-0.7,1.7-1.5,1.1l-4.9-3.1c-0.2-0.1-0.4-0.2-0.6-0.2
	c-0.2,0-0.4,0.1-0.6,0.2l-4.9,3.1c-0.8,0.6-1.8-0.2-1.5-1.1l1.3-5.6c0.1-0.2,0.1-0.4,0-0.6c-0.1-0.2-0.2-0.4-0.3-0.5l-3.6-3.3
	C23.6,8.2,24.1,7,25,7h5.1c0.2,0,0.4-0.1,0.6-0.2s0.3-0.3,0.4-0.5l2.1-5.7c0.3-0.8,1.5-0.8,1.9,0L37,6.4c0.1,0.2,0.2,0.3,0.4,0.5
	C37.5,6.9,37.7,7,37.9,7H43C43.9,7,44.4,8.2,43.6,8.7z M67.6,8.7L64,12c-0.2,0.1-0.3,0.3-0.3,0.5c-0.1,0.2-0.1,0.4,0,0.6l1.3,5.6
	c0.3,0.9-0.7,1.7-1.5,1.1l-4.9-3.1c-0.2-0.1-0.4-0.2-0.6-0.2c-0.2,0-0.4,0.1-0.6,0.2l-4.9,3.1c-0.8,0.6-1.8-0.2-1.5-1.1l1.3-5.6
	c0.1-0.2,0.1-0.4,0-0.6c-0.1-0.2-0.2-0.4-0.3-0.5l-3.6-3.3C47.6,8.2,48.1,7,49,7h5.1c0.2,0,0.4-0.1,0.6-0.2s0.3-0.3,0.4-0.5l2.1-5.7
	c0.3-0.8,1.5-0.8,1.9,0L61,6.4c0.1,0.2,0.2,0.3,0.4,0.5C61.5,6.9,61.7,7,61.9,7H67C67.9,7,68.4,8.2,67.6,8.7z M91.6,8.7L88,12
	c-0.2,0.1-0.3,0.3-0.3,0.5c-0.1,0.2-0.1,0.4,0,0.6l1.3,5.6c0.3,0.9-0.7,1.7-1.5,1.1l-4.9-3.1c-0.2-0.1-0.4-0.2-0.6-0.2
	s-0.4,0.1-0.6,0.2l-4.9,3.1c-0.8,0.6-1.8-0.2-1.5-1.1l1.3-5.6c0.1-0.2,0.1-0.4,0-0.6c-0.1-0.2-0.2-0.4-0.3-0.5l-3.6-3.3
	C71.6,8.2,72.1,7,73,7h5.1c0.2,0,0.4-0.1,0.6-0.2c0.2-0.1,0.3-0.3,0.4-0.5l2.1-5.7c0.3-0.8,1.5-0.8,1.9,0L85,6.4
	c0.1,0.2,0.2,0.3,0.4,0.5C85.5,6.9,85.7,7,85.9,7H91C91.9,7,92.4,8.2,91.6,8.7z M115.6,8.7L112,12c-0.2,0.1-0.3,0.3-0.3,0.5
	c-0.1,0.2-0.1,0.4,0,0.6l1.3,5.6c0.3,0.9-0.7,1.7-1.5,1.1l-4.9-3.1c-0.2-0.1-0.4-0.2-0.6-0.2s-0.4,0.1-0.6,0.2l-4.9,3.1
	c-0.8,0.6-1.8-0.2-1.5-1.1l1.3-5.6c0.1-0.2,0.1-0.4,0-0.6c-0.1-0.2-0.2-0.4-0.3-0.5l-3.6-3.3C95.6,8.2,96.1,7,97,7h5.1
	c0.2,0,0.4-0.1,0.6-0.2c0.2-0.1,0.3-0.3,0.4-0.5l2.1-5.7c0.3-0.8,1.5-0.8,1.9,0l2.1,5.7c0.1,0.2,0.2,0.3,0.4,0.5
	c0.2,0.1,0.4,0.2,0.6,0.2h5.1C115.9,7,116.4,8.2,115.6,8.7z"/>
</svg>
