<svg width="12" height="13" viewBox="0 0 12 13" fill="none" xmlns="http://www.w3.org/2000/svg">
<path d="M10.9258 0.39207L6.00062 5.31727L1.07543 0.39207C0.95697 0.28367 0.801256 0.225153 0.640724 0.22871C0.480193 0.232267 0.327224 0.297624 0.213684 0.411164C0.100143 0.524705 0.0347866 0.677674 0.0312297 0.838205C0.0276728 0.998736 0.0861894 1.15445 0.19459 1.27291L5.11729 6.19811L0.19334 11.1221C0.133184 11.1794 0.0850952 11.2482 0.0519011 11.3243C0.0187069 11.4005 0.00107691 11.4826 4.78131e-05 11.5657C-0.000981283 11.6488 0.0146112 11.7312 0.0459085 11.8082C0.0772058 11.8852 0.123576 11.9551 0.182294 12.0139C0.241013 12.0727 0.310893 12.1192 0.387829 12.1506C0.464764 12.182 0.547202 12.1977 0.630296 12.1968C0.71339 12.1959 0.795463 12.1784 0.871691 12.1453C0.947919 12.1122 1.01676 12.0642 1.07418 12.0041L6.00062 7.08019L10.9258 12.0054C11.0443 12.1138 11.2 12.1723 11.3605 12.1687C11.5211 12.1652 11.674 12.0998 11.7876 11.9863C11.9011 11.8728 11.9665 11.7198 11.97 11.5593C11.9736 11.3987 11.9151 11.243 11.8067 11.1246L6.88146 6.19936L11.8067 1.27291C11.8668 1.21558 11.9149 1.1468 11.9481 1.07062C11.9813 0.99444 11.9989 0.912392 12 0.829299C12.001 0.746207 11.9854 0.663747 11.9541 0.586767C11.9228 0.509787 11.8764 0.439841 11.8177 0.381039C11.759 0.322238 11.6891 0.275768 11.6122 0.244362C11.5352 0.212955 11.4528 0.197246 11.3697 0.198158C11.2866 0.199069 11.2045 0.216582 11.1283 0.249669C11.0521 0.282755 10.9832 0.330746 10.9258 0.390821V0.39207Z" fill="black"/>
</svg>
