<svg width="18" height="18" viewBox="0 0 18 18" fill="none" xmlns="http://www.w3.org/2000/svg">
<g clip-path="url(#clip0_348_43255)">
<path fill-rule="evenodd" clip-rule="evenodd" d="M5.43964 3.1916C6.07052 1.85963 7.42697 0.9375 9 0.9375C10.5731 0.9375 11.9295 1.85963 12.5603 3.1916C12.6233 3.18888 12.6865 3.1875 12.75 3.1875C15.1317 3.1875 17.0625 5.11827 17.0625 7.5C17.0625 9.13545 16.1522 10.5572 14.8125 11.2881V13.539C14.8125 14.2129 14.8126 14.7748 14.7526 15.2209C14.6893 15.6917 14.55 16.1168 14.2084 16.4584C13.8668 16.8 13.4417 16.9393 12.9709 17.0026C12.5248 17.0626 11.9629 17.0625 11.289 17.0625H6.71101C6.03714 17.0625 5.47523 17.0626 5.02914 17.0026C4.5583 16.9393 4.1332 16.8 3.7916 16.4584C3.44999 16.1168 3.31074 15.6917 3.24743 15.2209C3.18745 14.7748 3.18748 14.2129 3.1875 13.539V11.2881C1.84778 10.5572 0.9375 9.13545 0.9375 7.5C0.9375 5.11827 2.86827 3.1875 5.25 3.1875C5.31352 3.1875 5.37674 3.18888 5.43964 3.1916ZM5.10197 4.31588C3.41028 4.39322 2.0625 5.78921 2.0625 7.5C2.0625 8.8062 2.84827 9.93015 3.97521 10.4225C4.18009 10.512 4.3125 10.7144 4.3125 10.938V12.9375H13.6875V10.938C13.6875 10.7144 13.8199 10.512 14.0248 10.4225C15.1517 9.93015 15.9375 8.8062 15.9375 7.5C15.9375 5.78921 14.5898 4.39321 12.8981 4.31588C12.9241 4.49869 12.9375 4.68539 12.9375 4.875V5.25C12.9375 5.56066 12.6857 5.8125 12.375 5.8125C12.0644 5.8125 11.8125 5.56066 11.8125 5.25V4.875C11.8125 4.55786 11.7602 4.25409 11.6643 3.97115C11.2877 2.86052 10.2363 2.0625 9 2.0625C7.7637 2.0625 6.71236 2.86052 6.33572 3.97115C6.23978 4.25409 6.1875 4.55786 6.1875 4.875V5.25C6.1875 5.56066 5.93566 5.8125 5.625 5.8125C5.31434 5.8125 5.0625 5.56066 5.0625 5.25V4.875C5.0625 4.68538 5.07594 4.49869 5.10197 4.31588ZM13.6862 14.0625H4.31386C4.31703 14.4896 4.32756 14.8118 4.36241 15.071C4.40894 15.4171 4.48935 15.5652 4.58709 15.6629C4.68482 15.7607 4.83295 15.8411 5.17904 15.8876C5.54132 15.9363 6.02699 15.9375 6.75 15.9375H11.25C11.973 15.9375 12.4587 15.9363 12.821 15.8876C13.1671 15.8411 13.3152 15.7607 13.4129 15.6629C13.5107 15.5652 13.5911 15.4171 13.6376 15.071C13.6724 14.8118 13.683 14.4896 13.6862 14.0625Z" fill="#53B6C3"/>
</g>
<defs>
<clipPath id="clip0_348_43255">
<rect width="18" height="18" fill="white"/>
</clipPath>
</defs>
</svg>
