<svg width="20" height="22" viewBox="0 0 20 22" fill="none" xmlns="http://www.w3.org/2000/svg">
<path d="M10 20C8.89333 20 7.85333 19.7899 6.88 19.3696C5.90667 18.9499 5.06 18.38 4.34 17.66C3.62 16.94 3.05013 16.0933 2.6304 15.12C2.21013 14.1467 2 13.1067 2 12C2 10.8933 2.21013 9.85333 2.6304 8.88C3.05013 7.90667 3.62 7.06 4.34 6.34C5.06 5.62 5.90667 5.04987 6.88 4.6296C7.85333 4.20987 8.89333 4 10 4C11.1067 4 12.1467 4.20987 13.12 4.6296C14.0933 5.04987 14.94 5.62 15.66 6.34C16.38 7.06 16.9499 7.90667 17.3696 8.88C17.7899 9.85333 18 10.8933 18 12C18 13.1067 17.7899 14.1467 17.3696 15.12C16.9499 16.0933 16.38 16.94 15.66 17.66C14.94 18.38 14.0933 18.9499 13.12 19.3696C12.1467 19.7899 11.1067 20 10 20Z" fill="#0148D2"/>
<path d="M9.99688 8.8002C9.77021 8.8002 9.58008 8.87699 9.42648 9.0306C9.27341 9.18366 9.19688 9.37353 9.19688 9.6002C9.19688 9.82686 9.27341 10.0167 9.42648 10.1698C9.58008 10.3234 9.77021 10.4002 9.99688 10.4002C10.2235 10.4002 10.4134 10.3234 10.5665 10.1698C10.7201 10.0167 10.7969 9.82686 10.7969 9.6002C10.7969 9.37353 10.7201 9.18366 10.5665 9.0306C10.4134 8.877 10.2235 8.8002 9.99688 8.8002ZM10.7969 11.2002L9.19688 11.2002L9.19687 15.2002L10.7969 15.2002L10.7969 11.2002Z" fill="white"/>
</svg>
