<svg width="32" height="32" viewBox="0 0 32 32" fill="none" xmlns="http://www.w3.org/2000/svg">
<path d="M29.0909 0H2.90909C1.30182 0 0 1.30182 0 2.90909V29.0909C0 30.6982 1.30182 32 2.90909 32H17.4545V18.9091H13.0909V14.5455H17.4545V12.2022C17.4545 7.76582 19.616 5.81818 23.3033 5.81818C25.0691 5.81818 26.0029 5.94909 26.4451 6.00873V10.1818H23.9302C22.3651 10.1818 21.8182 11.008 21.8182 12.6807V14.5455H26.4058L25.7833 18.9091H21.8182V32H29.0909C30.6982 32 32 30.6982 32 29.0909V2.90909C32 1.30182 30.6967 0 29.0909 0Z" fill="#333333"/>
</svg>
