<svg width="19" height="21" viewBox="0 0 19 21" fill="none" xmlns="http://www.w3.org/2000/svg">
<path d="M14.3333 13.7551C13.7 13.7551 13.1156 13.9712 12.6578 14.3321L8.05333 11.0929C8.13043 10.6814 8.13043 10.2598 8.05333 9.84826L12.6578 6.60912C13.1156 6.96999 13.7 7.18607 14.3333 7.18607C15.8044 7.18607 17 6.02353 17 4.59304C17 3.16255 15.8044 2 14.3333 2C12.8622 2 11.6667 3.16255 11.6667 4.59304C11.6667 4.8437 11.7022 5.08355 11.7711 5.31261L7.39778 8.39184C6.74889 7.55558 5.71778 7.01321 4.55556 7.01321C2.59111 7.01321 1 8.56038 1 10.4706C1 12.3808 2.59111 13.928 4.55556 13.928C5.71778 13.928 6.74889 13.3856 7.39778 12.5493L11.7711 15.6286C11.7022 15.8576 11.6667 16.0996 11.6667 16.3481C11.6667 17.7786 12.8622 18.9412 14.3333 18.9412C15.8044 18.9412 17 17.7786 17 16.3481C17 14.9176 15.8044 13.7551 14.3333 13.7551ZM14.3333 3.46939C14.9711 3.46939 15.4889 3.97287 15.4889 4.59304C15.4889 5.21321 14.9711 5.71669 14.3333 5.71669C13.6956 5.71669 13.1778 5.21321 13.1778 4.59304C13.1778 3.97287 13.6956 3.46939 14.3333 3.46939ZM4.55556 12.3721C3.47778 12.3721 2.6 11.5186 2.6 10.4706C2.6 9.42257 3.47778 8.56903 4.55556 8.56903C5.63333 8.56903 6.51111 9.42257 6.51111 10.4706C6.51111 11.5186 5.63333 12.3721 4.55556 12.3721ZM14.3333 17.4718C13.6956 17.4718 13.1778 16.9683 13.1778 16.3481C13.1778 15.728 13.6956 15.2245 14.3333 15.2245C14.9711 15.2245 15.4889 15.728 15.4889 16.3481C15.4889 16.9683 14.9711 17.4718 14.3333 17.4718Z" fill="black"/>
</svg>
