<svg width="20" height="20" viewBox="0 0 20 20" fill="none" xmlns="http://www.w3.org/2000/svg">
<path d="M9.9974 18.9582C5.05573 18.9582 1.03906 14.9415 1.03906 9.99984C1.03906 5.05817 5.05573 1.0415 9.9974 1.0415C14.9391 1.0415 18.9557 5.05817 18.9557 9.99984C18.9557 14.9415 14.9391 18.9582 9.9974 18.9582ZM9.9974 2.2915C5.7474 2.2915 2.28906 5.74984 2.28906 9.99984C2.28906 14.2498 5.7474 17.7082 9.9974 17.7082C14.2474 17.7082 17.7057 14.2498 17.7057 9.99984C17.7057 5.74984 14.2474 2.2915 9.9974 2.2915Z" fill="#53B6C3"/>
<path d="M13.087 13.275C12.9786 13.275 12.8703 13.25 12.7703 13.1833L10.187 11.6416C9.54531 11.2583 9.07031 10.4166 9.07031 9.67496V6.2583C9.07031 5.91663 9.35365 5.6333 9.69531 5.6333C10.037 5.6333 10.3203 5.91663 10.3203 6.2583V9.67496C10.3203 9.97496 10.5703 10.4166 10.8286 10.5666L13.412 12.1083C13.712 12.2833 13.8036 12.6666 13.6286 12.9666C13.5036 13.1666 13.2953 13.275 13.087 13.275Z" fill="#53B6C3"/>
</svg>
