<svg width="32" height="32" viewBox="0 0 32 32" fill="none" xmlns="http://www.w3.org/2000/svg">
<path fill-rule="evenodd" clip-rule="evenodd" d="M4 0C1.79086 0 0 1.79086 0 4V28C0 30.2091 1.79086 32 4 32H28C30.2091 32 32 30.2091 32 28V4C32 1.79086 30.2091 0 28 0H4ZM23.142 11.6527C23.9166 11.5632 24.6546 11.3647 25.3417 11.0697C24.8284 11.8117 24.1786 12.4635 23.4298 12.9862C23.437 13.1452 23.4406 13.3048 23.4406 13.4652C23.4406 18.3582 19.5897 24.0003 12.5454 24.0003C10.3823 24.0003 8.37001 23.3873 6.675 22.3371C6.97509 22.3718 7.28021 22.3891 7.58891 22.3891C9.38372 22.3891 11.0349 21.797 12.3451 20.8037C10.6695 20.7739 9.25521 19.7028 8.76774 18.2319C9.00107 18.2742 9.24157 18.2978 9.48781 18.2978C9.83744 18.2978 10.1763 18.2527 10.4972 18.168C8.74477 17.8286 7.42523 16.332 7.42523 14.5376V14.4911C7.94141 14.7681 8.53226 14.9347 9.15973 14.9541C8.13238 14.2905 7.45682 13.157 7.45682 11.8728C7.45682 11.1932 7.64563 10.5574 7.97444 10.0104C9.86401 12.2511 12.6854 13.7255 15.868 13.8796C15.8034 13.6095 15.7689 13.3263 15.7689 13.0362C15.7689 10.9919 17.4833 9.33359 19.5983 9.33359C20.6996 9.33359 21.6946 9.7834 22.3932 10.5032C23.2662 10.3366 24.086 10.0284 24.8255 9.60431C24.5398 10.4692 23.9331 11.1946 23.142 11.6527Z" fill="#333333"/>
</svg>
