<svg width="32" height="32" viewBox="0 0 32 32" fill="none" xmlns="http://www.w3.org/2000/svg">
<path fill-rule="evenodd" clip-rule="evenodd" d="M4 0C1.79086 0 0 1.79086 0 4V28C0 30.2091 1.79086 32 4 32H28C30.2091 32 32 30.2091 32 28V4C32 1.79086 30.2091 0 28 0H4ZM6.67813 15.9996C6.67813 10.843 10.8548 6.66631 16.0115 6.66631C21.1681 6.66631 25.3448 10.843 25.3448 15.9996C25.3448 21.1563 21.1681 25.333 16.0115 25.333C10.8548 25.333 6.67813 21.1563 6.67813 15.9996ZM18.2048 9.44298C17.5048 9.20964 16.7815 8.99964 16.0115 8.99964V9.02297C14.7048 9.02297 13.4915 9.41964 12.4415 10.0496C12.6515 10.2596 12.8148 10.423 12.9548 10.493C13.7015 10.913 13.2581 11.613 12.6515 11.8696C12.4241 11.9682 12.1524 11.9781 11.8987 11.9873C11.3715 12.0065 10.9224 12.0229 11.1115 12.8263C11.2941 13.5992 11.0283 13.475 10.686 13.3151C10.4599 13.2095 10.2004 13.0883 10.0148 13.1996C9.38887 13.5636 9.98887 14.8537 10.4268 15.7955C10.6909 16.3633 10.8961 16.8045 10.7381 16.8396C10.5754 16.8861 10.3432 16.6894 10.0963 16.4803C9.84756 16.2696 9.58394 16.0463 9.36146 16.0463C9.17479 16.0463 9.05813 16.1396 8.98813 16.2563C9.01146 16.9563 9.22146 17.5863 9.43146 18.2163C9.68576 18.3162 10.0143 18.3454 10.3524 18.3755C10.8829 18.4226 11.437 18.4719 11.7648 18.7996C12.8615 19.453 14.0281 21.483 13.5148 22.5096C14.2848 22.813 15.1015 23.023 15.9881 23.023C18.3448 23.023 20.4915 21.903 21.7515 20.1063C21.8215 19.5463 21.5648 19.0796 20.5848 19.0796C18.9748 19.0796 16.9448 18.753 17.0148 16.8163C17.0348 16.357 17.4691 15.8252 17.8956 15.3029C18.4658 14.6046 19.022 13.9235 18.5548 13.4563C18.1426 13.0157 18.3451 12.7742 18.5664 12.5104C18.7084 12.3411 18.8581 12.1625 18.8581 11.9163C18.8581 11.4004 18.3165 11.2344 17.8606 11.0948C17.5537 11.0008 17.2857 10.9186 17.2481 10.7496C17.1694 10.3952 17.5558 10.0408 17.9729 9.65834C18.0501 9.58757 18.1283 9.51584 18.2048 9.44298ZM22.4281 13.223C22.1481 12.6163 21.8215 12.0563 21.4015 11.543C20.5148 11.7996 19.1848 12.3596 19.3481 12.7796C19.4219 12.9641 19.7614 12.9606 20.1104 12.957C20.4237 12.9538 20.7446 12.9505 20.8881 13.083C20.9729 13.1537 21.0406 13.3079 21.112 13.4703C21.2761 13.8441 21.4594 14.2617 21.9148 13.8063C22.0128 13.7083 22.0973 13.6341 22.1694 13.5707C22.286 13.4681 22.3704 13.3939 22.4281 13.293V13.223Z" fill="#333333"/>
</svg>
