<svg width="48" height="48" viewBox="0 0 48 48" fill="none" xmlns="http://www.w3.org/2000/svg">
<path fill-rule="evenodd" clip-rule="evenodd" d="M27.4939 40.5476C28.8838 40.5476 29.9829 39.4485 29.9829 38.0424C29.9829 36.6524 28.8515 35.5049 27.4939 35.5049C26.1362 35.5049 25.0534 36.6363 25.0372 38.0101C25.0372 39.4162 26.1039 40.5476 27.4939 40.5476ZM41.8945 31.7714C41.8945 30.3976 40.8116 29.2501 39.4702 29.2339C38.064 29.2339 36.9165 30.3491 36.9165 31.7552C36.9165 33.1129 38.0156 34.2604 39.3732 34.2927C40.7147 34.3251 41.8784 33.1614 41.8945 31.7876M8.26068 14.6716C8.90717 16.1586 9.52134 17.5809 10.1517 19.0516C12.1558 18.1627 14.1114 17.2899 16.0833 16.4172C16.1641 16.5788 16.2126 16.6758 16.261 16.7728C17.6348 19.9406 19.0086 23.1084 20.3824 26.2762C20.738 27.0682 21.0936 27.8763 21.5138 28.6359C23.2593 31.8037 25.9423 33.1614 29.4657 32.8543C35.074 32.3533 38.4843 26.1469 36.0276 20.975C34.9447 18.6961 33.878 16.4172 32.8113 14.1545C32.7305 13.9767 32.6335 13.815 32.5365 13.6211C29.0131 15.1565 25.5382 16.6758 22.0148 18.2112C20.835 15.4636 19.6551 12.7645 18.4753 10.0169C15.065 11.5685 11.6871 13.1039 8.26068 14.6716ZM8.43846 42.3093C14.2731 39.6586 20.0754 37.0242 25.8938 34.3897C25.1342 34.0341 24.3907 33.6786 23.6311 33.3715C23.4856 33.3068 23.2755 33.42 23.0977 33.5008C17.8288 35.8928 12.5599 38.2687 7.29094 40.6769C6.9192 40.8547 6.69293 40.8223 6.45049 40.4991C6.15957 40.1273 5.85249 39.8041 5.51308 39.4162C10.976 36.9434 16.3742 34.4867 21.8209 32.0138C21.3845 31.4805 20.9966 30.9795 20.5602 30.4461C20.4309 30.4946 20.2693 30.5431 20.1077 30.6239C15.0004 32.9351 9.89307 35.2625 4.78577 37.5899C4.41404 37.7515 4.18777 37.7676 3.99382 37.3636C3.81603 37.008 3.5736 36.6848 3.315 36.2807C8.76171 33.8079 14.1761 31.3512 19.639 28.8622C19.3642 28.2642 19.1056 27.6823 18.8147 27.0682C13.3357 29.5572 7.87278 32.03 2.37758 34.5352C2.13515 33.9857 1.89271 33.4523 1.63411 32.8543C7.12931 30.3653 12.5922 27.8763 18.1197 25.3711C17.8449 24.7731 17.5864 24.1913 17.3116 23.5771C11.8649 26.0499 6.46666 28.5066 1.00378 30.9795C0.858322 30.4138 0.712861 29.8966 0.5674 29.3471C5.91714 26.9227 11.2507 24.4984 16.6328 22.0578C16.3742 21.4598 16.1317 20.878 15.857 20.2477C10.6527 22.6074 5.46459 24.9671 0.260315 27.3268C-1.21046 17.9849 3.52511 6.21874 15.1297 1.62863C26.314 -2.79985 38.9368 2.08118 44.5128 12.8938C50.0727 23.6417 46.824 36.911 36.8842 43.8285C27.3322 50.4712 15.3559 48.5964 8.4223 42.3093" fill="#53B6C3"/>
<path fill-rule="evenodd" clip-rule="evenodd" d="M24.0664 22.6396C26.216 21.7184 28.3171 20.8294 30.5313 19.892C31.0485 21.3143 31.695 22.6396 32.0344 24.0619C32.4385 25.7751 31.3071 27.456 29.6586 27.9894C28.01 28.5227 26.1998 27.7793 25.4725 26.1953C24.9553 25.064 24.5513 23.8841 24.0664 22.6558" fill="#53B6C3"/>
</svg>
