<svg width="20" height="16" viewBox="0 0 20 16" fill="none" xmlns="http://www.w3.org/2000/svg">
<g clip-path="url(#clip0_900_17264)">
<path d="M2.37344 12.0732L2.42188 3.492H1.45313V14.4107C2.78438 14.067 4.12031 13.8482 5.46563 13.8389C6.70781 13.8311 7.95 14.0045 9.19531 14.4264C8.42188 13.7998 7.55938 13.3389 6.63906 13.0389C5.47969 12.6607 4.22656 12.5357 2.94219 12.6451C2.65156 12.6686 2.39844 12.4529 2.37344 12.1639C2.37031 12.1326 2.37031 12.1029 2.37344 12.0732ZM16.5891 3.04356C16.5859 3.01856 16.5828 2.992 16.5828 2.96387C16.5828 2.93731 16.5844 2.91075 16.5891 2.88418V1.14668C15.3703 1.03106 14.1141 1.16543 13.0172 1.58106C11.9922 1.97012 11.1078 2.60918 10.5328 3.52481V13.4217C11.4266 12.8248 12.3406 12.3342 13.2797 11.9998C14.35 11.6186 15.45 11.4373 16.5891 11.5279V3.04356ZM17.6438 2.43731H19.0719C19.3625 2.43731 19.5984 2.67325 19.5984 2.96387V15.0982C19.5984 15.3889 19.3625 15.6248 19.0719 15.6248C19.0125 15.6248 18.9547 15.6154 18.9016 15.5967C17.4328 15.1764 15.9734 14.8967 14.5281 14.8873C13.1188 14.8779 11.7109 15.1264 10.2969 15.7498C10.2094 15.8076 10.1047 15.8389 9.99688 15.8373C9.89063 15.8389 9.78594 15.8076 9.69688 15.7498C8.28438 15.1248 6.875 14.8779 5.46563 14.8873C4.02031 14.8967 2.5625 15.1764 1.09219 15.5967C1.03906 15.6154 0.98125 15.6248 0.921875 15.6248C0.634375 15.6264 0.398438 15.3904 0.398438 15.0998V2.96387C0.398438 2.67325 0.634375 2.43731 0.925 2.43731H2.42656L2.43594 0.677933C2.4375 0.424808 2.61563 0.215433 2.85469 0.165433C4.24063 -0.12363 5.925 -0.0517546 7.40156 0.51387C8.42188 0.904495 9.34844 1.52793 10.025 2.42793C10.7078 1.58887 11.6203 0.985745 12.6469 0.596683C14.05 0.0638704 15.6688 -0.0642546 17.1922 0.159183C17.4547 0.196683 17.6422 0.423245 17.6422 0.679495V2.43731H17.6438ZM11.0438 14.3467C12.2078 13.9811 13.3703 13.8311 14.5328 13.8373C15.8781 13.8451 17.2141 14.0654 18.5453 14.4092V3.492H17.6438V12.1201C17.6438 12.4107 17.4078 12.6467 17.1172 12.6467C17.075 12.6467 17.0344 12.642 16.9953 12.6326C15.8422 12.4514 14.725 12.6014 13.6344 12.9904C12.7563 13.3045 11.8938 13.7732 11.0438 14.3467ZM9.47969 13.3201V3.50918C8.92813 2.53575 8.03594 1.88418 7.02813 1.49825C5.88594 1.06075 4.60313 0.962308 3.48438 1.12168L3.425 11.5607C4.64531 11.517 5.83906 11.6717 6.9625 12.0389C7.85625 12.3295 8.70313 12.7561 9.47969 13.3201Z" fill="white"/>
</g>
<defs>
<clipPath id="clip0_900_17264">
<rect width="19.2" height="15.8391" fill="white" transform="translate(0.398438)"/>
</clipPath>
</defs>
</svg>
