<svg width="21" height="24" viewBox="0 0 21 24" fill="none" xmlns="http://www.w3.org/2000/svg">
<path d="M0.703125 6C0.703125 5.73478 0.808482 5.48043 0.996018 5.29289C1.18355 5.10536 1.43791 5 1.70312 5H19.7031C19.9683 5 20.2227 5.10536 20.4102 5.29289C20.5978 5.48043 20.7031 5.73478 20.7031 6C20.7031 6.26522 20.5978 6.51957 20.4102 6.70711C20.2227 6.89464 19.9683 7 19.7031 7H1.70312C1.43791 7 1.18355 6.89464 0.996018 6.70711C0.808482 6.51957 0.703125 6.26522 0.703125 6ZM0.703125 12.032C0.703125 11.7668 0.808482 11.5124 0.996018 11.3249C1.18355 11.1374 1.43791 11.032 1.70312 11.032H19.7031C19.9683 11.032 20.2227 11.1374 20.4102 11.3249C20.5978 11.5124 20.7031 11.7668 20.7031 12.032C20.7031 12.2972 20.5978 12.5516 20.4102 12.7391C20.2227 12.9266 19.9683 13.032 19.7031 13.032H1.70312C1.43791 13.032 1.18355 12.9266 0.996018 12.7391C0.808482 12.5516 0.703125 12.2972 0.703125 12.032ZM1.70312 17.064C1.43791 17.064 1.18355 17.1694 0.996018 17.3569C0.808482 17.5444 0.703125 17.7988 0.703125 18.064C0.703125 18.3292 0.808482 18.5836 0.996018 18.7711C1.18355 18.9586 1.43791 19.064 1.70312 19.064H19.7031C19.9683 19.064 20.2227 18.9586 20.4102 18.7711C20.5978 18.5836 20.7031 18.3292 20.7031 18.064C20.7031 17.7988 20.5978 17.5444 20.4102 17.3569C20.2227 17.1694 19.9683 17.064 19.7031 17.064H1.70312Z" fill="black"/>
</svg>
