<svg width="20" height="20" viewBox="0 0 20 20" fill="none" xmlns="http://www.w3.org/2000/svg">
<path fill-rule="evenodd" clip-rule="evenodd" d="M5.30381 2.58315C5.60312 2.75502 5.70637 3.13708 5.53449 3.4364C5.47187 3.54546 5.36649 3.76802 5.28768 4.03321C5.20743 4.30308 5.16955 4.56727 5.19562 4.77933C5.21068 4.90215 5.24074 4.9674 5.26693 5.01071C5.29999 5.06515 5.34243 5.11246 5.43755 5.2114C5.44099 5.21496 5.44449 5.21858 5.44805 5.22233C5.53387 5.31146 5.66549 5.44821 5.77593 5.6304C5.89774 5.83127 5.98337 6.06671 6.01906 6.35746C6.07431 6.80708 5.98999 7.25746 5.88449 7.61215C5.77768 7.97146 5.63381 8.28327 5.52349 8.47527C5.35156 8.77458 4.96956 8.8779 4.67024 8.70596C4.37093 8.53408 4.26762 8.15208 4.43955 7.85277C4.50218 7.74371 4.60749 7.52115 4.68637 7.2559C4.76662 6.98608 4.80443 6.72183 4.77837 6.50977C4.76331 6.38696 4.73331 6.32171 4.70706 6.2784C4.67406 6.22396 4.63162 6.17671 4.53643 6.07771C4.53306 6.07415 4.52956 6.07052 4.52599 6.06683C4.44012 5.97765 4.30849 5.8409 4.19806 5.65877C4.07624 5.45783 3.99062 5.22246 3.95493 4.93171C3.89974 4.48208 3.98406 4.03165 4.08949 3.67696C4.19631 3.31771 4.34024 3.0059 4.45055 2.81383C4.62243 2.51452 5.00443 2.41121 5.30381 2.58315Z" fill="#53B6C3"/>
<path fill-rule="evenodd" clip-rule="evenodd" d="M10.3038 2.58315C10.6031 2.75502 10.7064 3.13708 10.5345 3.4364C10.4719 3.54546 10.3665 3.76802 10.2877 4.03321C10.2074 4.30308 10.1696 4.56727 10.1956 4.77933C10.2107 4.90215 10.2407 4.9674 10.2669 5.01071C10.3 5.06515 10.3424 5.11246 10.4376 5.2114C10.441 5.21496 10.4445 5.21858 10.4481 5.22233C10.5339 5.31146 10.6655 5.44821 10.7759 5.6304C10.8977 5.83127 10.9834 6.06671 11.0191 6.35746C11.0743 6.80708 10.99 7.25746 10.8845 7.61215C10.7777 7.97146 10.6338 8.28327 10.5235 8.47527C10.3516 8.77458 9.96956 8.8779 9.67024 8.70596C9.37093 8.53408 9.26762 8.15208 9.43956 7.85277C9.50218 7.74371 9.60749 7.52115 9.68637 7.2559C9.76662 6.98608 9.80443 6.72183 9.77837 6.50977C9.76331 6.38696 9.73331 6.32171 9.70706 6.2784C9.67406 6.22396 9.63162 6.17671 9.53643 6.07771C9.53306 6.07415 9.52956 6.07052 9.52599 6.06683C9.44012 5.97765 9.30849 5.8409 9.19806 5.65877C9.07624 5.45783 8.99062 5.22246 8.95493 4.93171C8.89974 4.48208 8.98406 4.03165 9.08949 3.67696C9.19631 3.31771 9.34024 3.0059 9.45056 2.81383C9.62243 2.51452 10.0044 2.41121 10.3038 2.58315Z" fill="#53B6C3"/>
<path fill-rule="evenodd" clip-rule="evenodd" d="M15.3038 2.58315C15.6031 2.75502 15.7064 3.13708 15.5345 3.4364C15.4719 3.54546 15.3665 3.76802 15.2877 4.03321C15.2074 4.30308 15.1696 4.56727 15.1956 4.77933C15.2107 4.90215 15.2407 4.9674 15.2669 5.01071C15.3 5.06515 15.3424 5.11246 15.4376 5.2114C15.441 5.21496 15.4445 5.21858 15.4481 5.22233C15.5339 5.31146 15.6655 5.44821 15.7759 5.6304C15.8977 5.83127 15.9834 6.06671 16.0191 6.35746C16.0743 6.80708 15.99 7.25746 15.8845 7.61215C15.7777 7.97146 15.6338 8.28327 15.5235 8.47527C15.3516 8.77458 14.9696 8.8779 14.6702 8.70596C14.3709 8.53408 14.2676 8.15208 14.4396 7.85277C14.5022 7.74371 14.6075 7.52115 14.6864 7.2559C14.7666 6.98608 14.8044 6.72183 14.7784 6.50977C14.7633 6.38696 14.7333 6.32171 14.7071 6.2784C14.6741 6.22396 14.6316 6.17671 14.5364 6.07771C14.5331 6.07415 14.5296 6.07052 14.526 6.06683C14.4401 5.97765 14.3085 5.8409 14.1981 5.65877C14.0762 5.45783 13.9906 5.22246 13.9549 4.93171C13.8997 4.48208 13.9841 4.03165 14.0895 3.67696C14.1963 3.31771 14.3402 3.0059 14.4506 2.81383C14.6224 2.51452 15.0044 2.41121 15.3038 2.58315Z" fill="#53B6C3"/>
<path fill-rule="evenodd" clip-rule="evenodd" d="M16.25 12.519H3.75C3.75 14.5901 5.42894 16.269 7.5 16.269H12.5C14.5711 16.269 16.25 14.5901 16.25 12.519ZM2.5 11.269V12.519C2.5 15.2805 4.73856 17.519 7.5 17.519H12.5C15.2614 17.519 17.5 15.2805 17.5 12.519V11.269H2.5Z" fill="#53B6C3"/>
<path fill-rule="evenodd" clip-rule="evenodd" d="M0 11.894C0 11.5489 0.279825 11.269 0.625 11.269H19.375C19.7202 11.269 20 11.5489 20 11.894C20 12.2392 19.7202 12.519 19.375 12.519H0.625C0.279825 12.519 0 12.2392 0 11.894Z" fill="#53B6C3"/>
</svg>
