<svg width="14" height="14" viewBox="0 0 14 14" fill="none" xmlns="http://www.w3.org/2000/svg">
<path d="M6.3521 0.443093C6.5761 -0.147698 7.42378 -0.147698 7.64848 0.443093L9.09746 4.45683C9.14801 4.58758 9.23702 4.69993 9.35275 4.77903C9.46847 4.85814 9.60547 4.9003 9.74565 4.89993H13.3065C13.9645 4.89993 14.2515 5.71891 13.7342 6.12001L11.2002 8.39987C11.0867 8.48713 11.0038 8.6081 10.9633 8.74543C10.9228 8.88275 10.9268 9.02938 10.9748 9.16426L11.9002 13.0863C12.1256 13.7163 11.3962 14.2574 10.8446 13.8696L7.40278 11.6856C7.28491 11.6028 7.14436 11.5583 7.00029 11.5583C6.85622 11.5583 6.71566 11.6028 6.5978 11.6856L3.15595 13.8696C2.60506 14.2574 1.87497 13.7156 2.10036 13.0863L3.02575 9.16426C3.07375 9.02938 3.0778 8.88275 3.03731 8.74543C2.99681 8.6081 2.91386 8.48713 2.80035 8.39987L0.266391 6.12001C-0.251601 5.71891 0.0367948 4.89993 0.693385 4.89993H4.25423C4.39443 4.90039 4.53147 4.85828 4.64722 4.77916C4.76296 4.70004 4.85195 4.58764 4.90242 4.45683L6.3514 0.443093H6.3521Z" fill="#FFB439"/>
</svg>
